<svg xmlns="http://www.w3.org/2000/svg" xmlns:xlink="http://www.w3.org/1999/xlink" viewBox="0 0 151.74 50"><defs><style>.a{fill:#d4d5d6;}.b{fill:#f1f2f3;}.c{fill:url(#a);}.d{fill:url(#b);}</style><linearGradient id="a" x1="20" y1="95.74" x2="37.02" y2="95.74" gradientUnits="userSpaceOnUse"><stop offset="0" stop-color="#0089e6"/><stop offset="0.4" stop-color="#0078d4"/><stop offset="1" stop-color="#0056b0"/></linearGradient><linearGradient id="b" x1="38.98" y1="95.74" x2="56" y2="95.74" gradientUnits="userSpaceOnUse"><stop offset="0" stop-color="#0056b0"/><stop offset="0.6" stop-color="#0078d4"/><stop offset="1" stop-color="#0089e6"/></linearGradient></defs><rect class="a" x="45.71" width="2" height="50" rx="0.56"/><path class="b" d="M84.5,104.23A6.5,6.5,0,0,1,79.27,102a9.47,9.47,0,0,1-1.84-6.23,10,10,0,0,1,.95-4.49,7.1,7.1,0,0,1,2.67-3,6.9,6.9,0,0,1,3.66-1,7.56,7.56,0,0,1,2.72.46,8.34,8.34,0,0,1,2.26,1.37,1,1,0,0,1,.36.71,1,1,0,0,1-.28.75L88.6,91.76a1,1,0,0,1-.72.31,1,1,0,0,1-.63-.23A4.73,4.73,0,0,0,86,91.1a3.69,3.69,0,0,0-1.32-.21,2.77,2.77,0,0,0-1.51.44,3.26,3.26,0,0,0-1.15,1.48,7.26,7.26,0,0,0-.5,2.92,6.94,6.94,0,0,0,.81,3.87,2.39,2.39,0,0,0,2.14,1,5,5,0,0,0,1.75-.29V97.57H84.69a1,1,0,0,1-1-.86l-.24-1.62a1,1,0,0,1,.24-.79,1,1,0,0,1,.75-.35h4.77a1,1,0,0,1,1,1v7a1,1,0,0,1-.5.87A10.52,10.52,0,0,1,84.5,104.23Z" transform="translate(-20 -70.83)"/><path class="b" d="M93.67,104a1,1,0,0,1-1-1V88.51a1,1,0,0,1,1-1h7.84a1,1,0,0,1,.75.34,1,1,0,0,1,.23.8l-.23,1.59a1,1,0,0,1-1,.86H96.67v2.73h3.87a1,1,0,0,1,1,1v1.59a1,1,0,0,1-1,1H96.67v3h5a1,1,0,0,1,1,1V103a1,1,0,0,1-1,1Z" transform="translate(-20 -70.83)"/><path class="b" d="M108.29,104a1,1,0,0,1-1-1V91.21h-3.12a1,1,0,0,1-1-1v-1.7a1,1,0,0,1,1-1h10.34a1,1,0,0,1,.74.33,1,1,0,0,1,.25.79l-.21,1.7a1,1,0,0,1-1,.88h-3V103a1,1,0,0,1-1,1Z" transform="translate(-20 -70.83)"/><rect class="b" x="94.98" y="23.75" width="7.94" height="3.64" rx="1"/><path class="b" d="M126.33,104a1,1,0,0,1-1-1V88.51a1,1,0,0,1,1-1h2a1,1,0,0,1,1,1v11.72h5a1,1,0,0,1,.75.34,1,1,0,0,1,.24.79l-.23,1.75a1,1,0,0,1-1,.86Z" transform="translate(-20 -70.83)"/><rect class="b" x="116.84" y="16.67" width="4" height="16.47" rx="1"/><path class="b" d="M152.56,104a1,1,0,0,1-.9-.56L148,95.66V103a1,1,0,0,1-1,1h-1.87a1,1,0,0,1-1-1V88.51a1,1,0,0,1,1-1h2.61a1,1,0,0,1,.9.56l3.77,7.81V88.51a1,1,0,0,1,1-1h1.86a1,1,0,0,1,1,1V103a1,1,0,0,1-1,1Z" transform="translate(-20 -70.83)"/><path class="b" d="M168.29,104a1,1,0,0,1-.81-.4l-4-5.43V103a1,1,0,0,1-1,1h-2a1,1,0,0,1-1-1V88.51a1,1,0,0,1,1-1h2a1,1,0,0,1,1,1v4.06l3.83-4.7a1,1,0,0,1,.78-.36h2.26a1,1,0,0,1,.77,1.63l-5,6,5.4,7.22a1,1,0,0,1-.8,1.6Z" transform="translate(-20 -70.83)"/><path class="c" d="M37,100.94a.46.46,0,0,1-.06.23l-1.41,2.45a1.89,1.89,0,0,1-1.64.95h-8a1.89,1.89,0,0,1-1.64-.95l-4-6.93a2,2,0,0,1-.25-.94v0a2,2,0,0,1,.25-.94l4-6.93a1.89,1.89,0,0,1,1.64-1h8a1.89,1.89,0,0,1,1.64,1L37,90.31a.43.43,0,0,1,.06.22.48.48,0,0,1-.42.48H35.06a.45.45,0,0,1-.33-.2h0l0-.06-.54-.93a1.42,1.42,0,0,0-1.23-.71h-6a1.41,1.41,0,0,0-1.23.71l-3,5.22a1.31,1.31,0,0,0-.19.69v0a1.31,1.31,0,0,0,.19.69l3,5.22a1.41,1.41,0,0,0,1.23.71h6a1.42,1.42,0,0,0,1.23-.71l.54-.93,0-.06h0a.45.45,0,0,1,.33-.2H36.6A.48.48,0,0,1,37,100.94Z" transform="translate(-20 -70.83)"/><path class="d" d="M56,95.73v0a2,2,0,0,1-.25.94l-4,6.93a1.89,1.89,0,0,1-1.64.95h-8a1.89,1.89,0,0,1-1.64-.95L39,101.17a.46.46,0,0,1-.06-.23.48.48,0,0,1,.42-.47h1.53a.45.45,0,0,1,.34.2h0l0,.06.54.93a1.42,1.42,0,0,0,1.23.71h6a1.41,1.41,0,0,0,1.23-.71l3-5.22a1.31,1.31,0,0,0,.19-.69v0a1.31,1.31,0,0,0-.19-.69l-3-5.22a1.41,1.41,0,0,0-1.23-.71h-6a1.42,1.42,0,0,0-1.23.71l-.54.93,0,.06h0a.45.45,0,0,1-.34.2H39.4a.48.48,0,0,1-.42-.48.43.43,0,0,1,.06-.22l1.41-2.45a1.89,1.89,0,0,1,1.64-1h8a1.89,1.89,0,0,1,1.64,1l4,6.93A2,2,0,0,1,56,95.73Z" transform="translate(-20 -70.83)"/><rect class="a" x="7.56" y="23.48" width="20.87" height="2.85" rx="0.82"/></svg>