<svg xmlns="http://www.w3.org/2000/svg" viewBox="0 0 192 192"><path d="M91.9,117.9a1.4,1.4,0,0,1-.3.9l-5.9,10.4a8.1,8.1,0,0,1-7,4H45a7.8,7.8,0,0,1-6.9-4L21.2,99.9A7.9,7.9,0,0,1,20.1,96h0A7.9,7.9,0,0,1,21.2,92L38.1,62.7a7.8,7.8,0,0,1,6.9-4H78.7a8.1,8.1,0,0,1,7,4l5.9,10.4a1.4,1.4,0,0,1,.3.9,2,2,0,0,1-1.8,2H83.6a2.2,2.2,0,0,1-1.4-.8h0l-.2-.2L79.8,71a6,6,0,0,0-5.2-3H49.2A5.8,5.8,0,0,0,44,71L31.3,92.9a5.6,5.6,0,0,0-.8,3h0a5.6,5.6,0,0,0,.8,3L44,120.9a5.8,5.8,0,0,0,5.2,3H74.6a6,6,0,0,0,5.2-3L82,117l.2-.2h0a2.2,2.2,0,0,1,1.4-.8h6.5A2,2,0,0,1,91.9,117.9Z"/><path d="M171.9,95.9h0a7.9,7.9,0,0,1-1.1,3.9l-16.9,29.3a7.8,7.8,0,0,1-6.9,4H113.3a8.1,8.1,0,0,1-7-4l-5.9-10.4a1.4,1.4,0,0,1-.3-.9,2,2,0,0,1,1.8-2h6.5a2.2,2.2,0,0,1,1.4.8h0l.2.2,2.2,3.9a6,6,0,0,0,5.2,3h25.4a5.8,5.8,0,0,0,5.2-3L160.7,99a5.6,5.6,0,0,0,.8-3h0a5.6,5.6,0,0,0-.8-3L148,71a5.8,5.8,0,0,0-5.2-3H117.4a6,6,0,0,0-5.2,3L110,74.9l-.2.2h0a2.2,2.2,0,0,1-1.4.8h-6.5a2,2,0,0,1-1.8-2,1.4,1.4,0,0,1,.3-.9l5.9-10.4a8.1,8.1,0,0,1,7-4H147a7.8,7.8,0,0,1,6.9,4L170.8,92A7.9,7.9,0,0,1,171.9,95.9Z"/><path d="M140,93.4v5.1a3.4,3.4,0,0,1-3.5,3.4h-81A3.4,3.4,0,0,1,52,98.5V93.4a3.5,3.5,0,0,1,3.5-3.5h81A3.5,3.5,0,0,1,140,93.4Z"/></svg>