<?xml version="1.0" standalone="no"?>
<!DOCTYPE svg PUBLIC "-//W3C//DTD SVG 20010904//EN"
 "http://www.w3.org/TR/2001/REC-SVG-20010904/DTD/svg10.dtd">
<svg version="1.0" xmlns="http://www.w3.org/2000/svg"
 width="512.000000pt" height="512.000000pt" viewBox="0 0 512.000000 512.000000"
 preserveAspectRatio="xMidYMid meet">
<metadata>
Created by potrace 1.14, written by Peter Selinger 2001-2017
</metadata>
<g transform="translate(0.000000,512.000000) scale(0.100000,-0.100000)"
fill="#000000" stroke="none">
<path d="M741 3803 c-57 -20 -126 -90 -169 -168 -37 -69 -29 -56 -277 -485
-103 -179 -191 -329 -195 -335 -4 -5 -27 -46 -51 -90 -42 -76 -44 -84 -44
-160 0 -97 -48 -4 453 -870 41 -71 86 -150 100 -175 67 -121 101 -157 176
-191 49 -21 54 -22 678 -21 l629 0 54 27 c71 34 99 70 223 287 145 252 141
269 -55 270 -65 1 -127 -2 -138 -5 -12 -4 -46 -49 -80 -106 -60 -100 -94 -133
-156 -151 -20 -6 -220 -10 -493 -10 -434 1 -460 2 -497 20 -38 20 -89 62 -89
73 0 6 -63 115 -90 157 -6 8 -13 22 -17 30 -4 8 -20 38 -36 65 -17 28 -38 64
-47 80 -9 17 -52 91 -95 165 -43 74 -87 151 -98 170 -10 19 -30 53 -43 76 -31
53 -41 123 -23 166 7 18 70 132 139 253 353 613 331 579 405 615 38 19 63 20
516 17 l475 -2 42 -28 c40 -26 77 -75 136 -180 15 -27 36 -52 47 -56 11 -4 74
-6 139 -6 133 1 160 13 160 65 0 28 -190 368 -242 432 -15 19 -49 45 -75 58
l-48 25 -635 2 c-557 1 -640 0 -679 -14z"/>
<path d="M3055 3808 c-36 -13 -82 -43 -112 -73 -36 -37 -243 -408 -243 -436 0
-52 28 -63 162 -64 66 0 129 4 141 10 11 5 38 44 61 85 49 89 108 151 158 167
25 7 183 11 497 11 507 -1 503 0 563 -64 22 -24 117 -181 232 -386 12 -20 45
-78 75 -130 30 -51 62 -106 71 -123 10 -16 31 -54 49 -83 73 -124 78 -169 25
-268 -19 -36 -100 -177 -178 -313 -79 -135 -154 -264 -166 -286 -92 -166 -128
-207 -197 -224 -57 -15 -914 -15 -966 0 -56 15 -102 62 -155 156 -26 47 -55
89 -66 95 -10 5 -75 10 -144 10 -118 0 -128 -2 -144 -22 -10 -12 -18 -33 -18
-47 0 -26 196 -371 243 -428 15 -19 53 -46 83 -61 l56 -27 627 0 627 1 52 22
c47 20 142 107 142 129 0 4 31 61 69 127 38 65 103 178 144 249 41 72 116 202
168 290 199 344 203 352 206 429 2 81 -5 102 -86 241 -32 55 -69 118 -81 140
-12 22 -53 92 -90 155 -37 63 -132 227 -211 365 -79 137 -156 264 -171 281
-15 17 -51 43 -80 57 l-53 27 -630 -1 c-415 -1 -640 -4 -660 -11z"/>
<path d="M1143 2755 c-55 -24 -67 -54 -68 -179 -1 -125 5 -153 41 -187 l26
-24 1406 -2 c1106 -2 1412 0 1431 10 54 27 64 57 66 182 1 130 -9 166 -58 195
-28 17 -102 18 -1421 18 -1140 0 -1397 -2 -1423 -13z"/>
</g>
</svg>
