<svg xmlns="http://www.w3.org/2000/svg" xmlns:xlink="http://www.w3.org/1999/xlink" viewBox="0 0 192 192"><defs><style>.a{fill:url(#a);}.b{fill:url(#b);}.c{fill:#d4d5d6;}</style><linearGradient id="a" x1="20.11" y1="95.95" x2="91.88" y2="95.95" gradientUnits="userSpaceOnUse"><stop offset="0" stop-color="#0089e6"/><stop offset="0.4" stop-color="#0078d4"/><stop offset="1" stop-color="#0056b0"/></linearGradient><linearGradient id="b" x1="100.13" y1="95.95" x2="171.89" y2="95.95" gradientUnits="userSpaceOnUse"><stop offset="0" stop-color="#0056b0"/><stop offset="0.6" stop-color="#0078d4"/><stop offset="1" stop-color="#0089e6"/></linearGradient></defs><path class="a" d="M91.88,117.9a2.09,2.09,0,0,1-.24.95l-6,10.33a8,8,0,0,1-6.93,4H45a8,8,0,0,1-6.93-4L21.18,99.94a8.09,8.09,0,0,1-1.07-4v0a8.09,8.09,0,0,1,1.07-4L38.06,62.72a8,8,0,0,1,6.93-4H78.75a8,8,0,0,1,6.93,4l6,10.33a2.06,2.06,0,0,1,.24,1,2,2,0,0,1-1.8,2H83.63a2,2,0,0,1-1.43-.84l0,0L82,74.87,79.76,71a6,6,0,0,0-5.19-3H49.18A6,6,0,0,0,44,71l-12.69,22a6.16,6.16,0,0,0-.81,2.94V96A6.23,6.23,0,0,0,31.27,99l12.69,22a6,6,0,0,0,5.22,3H74.57a6,6,0,0,0,5.19-3L82,117l.15-.27,0,0a2,2,0,0,1,1.43-.83h6.45A2,2,0,0,1,91.88,117.9Z"/><path class="b" d="M171.89,95.93v0a8,8,0,0,1-1.07,4L154,129.19a8.05,8.05,0,0,1-6.94,4H113.26a8.05,8.05,0,0,1-6.94-4l-5.95-10.35a1.89,1.89,0,0,1-.24-1,2,2,0,0,1,1.79-2h6.46a2,2,0,0,1,1.43.85l0,0,.15.26,2.26,3.92a6,6,0,0,0,5.2,3h25.38a6,6,0,0,0,5.22-3l12.69-22a6,6,0,0,0,.81-2.94v-.13a6.08,6.08,0,0,0-.81-2.94L148,71a6,6,0,0,0-5.22-3H117.44a6,6,0,0,0-5.2,3L110,74.87l-.15.26,0,0a2,2,0,0,1-1.43.84h-6.46a2,2,0,0,1-1.79-2,1.85,1.85,0,0,1,.24-.94l5.95-10.35a8.05,8.05,0,0,1,6.94-4H147a8.05,8.05,0,0,1,6.94,4L170.82,92A8.11,8.11,0,0,1,171.89,95.93Z"/><path class="c" d="M140,93.42v5.07a3.46,3.46,0,0,1-3.46,3.46H55.46A3.46,3.46,0,0,1,52,98.49V93.42A3.47,3.47,0,0,1,55.46,90h81.08A3.47,3.47,0,0,1,140,93.42Z"/></svg>