<svg xmlns="http://www.w3.org/2000/svg" xmlns:xlink="http://www.w3.org/1999/xlink" viewBox="0 0 151.8 151.8"><defs><linearGradient id="a" y1="75.84" x2="71.77" y2="75.84" gradientUnits="userSpaceOnUse"><stop offset="0" stop-color="#0089e6"/><stop offset="0.4" stop-color="#0078d4"/><stop offset="1" stop-color="#0056b0"/></linearGradient><linearGradient id="b" x1="80.02" y1="75.84" x2="151.79" y2="75.84" gradientUnits="userSpaceOnUse"><stop offset="0" stop-color="#0056b0"/><stop offset="0.6" stop-color="#0078d4"/><stop offset="1" stop-color="#0089e6"/></linearGradient></defs><path d="M71.8,97.8a1.4,1.4,0,0,1-.3.9l-5.9,10.4a8.3,8.3,0,0,1-7,4H24.9a8.3,8.3,0,0,1-7-4L1.1,79.8A7.9,7.9,0,0,1,0,75.9H0a8.3,8.3,0,0,1,1.1-4L17.9,42.6a8.1,8.1,0,0,1,7-4H58.6a8.1,8.1,0,0,1,7,4l5.9,10.3a1.9,1.9,0,0,1,.3,1,2,2,0,0,1-1.8,2H63.5a2.2,2.2,0,0,1-1.4-.8h0l-.2-.2-2.2-3.9a6.1,6.1,0,0,0-5.2-3.1H29.1a5.9,5.9,0,0,0-5.2,3.1L11.2,72.8a5.4,5.4,0,0,0-.8,3h0a5.1,5.1,0,0,0,.8,2.9l12.7,22a5.8,5.8,0,0,0,5.2,3H54.5a6,6,0,0,0,5.2-3l2.2-3.9.2-.2h0a1.8,1.8,0,0,1,1.4-.8H70A2,2,0,0,1,71.8,97.8Z" fill="url(#a)"/><path d="M151.8,75.8h0a7.9,7.9,0,0,1-1.1,3.9l-16.9,29.3a8,8,0,0,1-6.9,4H93.1a8.2,8.2,0,0,1-6.9-4L80.3,98.7a1.4,1.4,0,0,1-.3-.9,2,2,0,0,1,1.8-2h6.5a1.8,1.8,0,0,1,1.4.8h0l.2.2,2.2,3.9a6,6,0,0,0,5.2,3h25.4a5.8,5.8,0,0,0,5.2-3l12.7-22a6,6,0,0,0,.8-2.9h0a6.4,6.4,0,0,0-.8-3L127.9,50.9a5.9,5.9,0,0,0-5.2-3.1H97.3a6.1,6.1,0,0,0-5.2,3.1l-2.2,3.9-.2.2h0a2.2,2.2,0,0,1-1.4.8H81.8a2,2,0,0,1-1.8-2,1.9,1.9,0,0,1,.3-1l5.9-10.3a7.9,7.9,0,0,1,6.9-4h33.8a7.8,7.8,0,0,1,6.9,4l16.9,29.2A8.3,8.3,0,0,1,151.8,75.8Z" fill="url(#b)"/><path d="M119.9,73.3v5.1a3.5,3.5,0,0,1-3.5,3.4h-81a3.4,3.4,0,0,1-3.5-3.4V73.3a3.5,3.5,0,0,1,3.5-3.5h81A3.5,3.5,0,0,1,119.9,73.3Z" fill="#d4d5d6"/></svg>