<svg xmlns="http://www.w3.org/2000/svg" viewBox="0 0 640 480"><rect width="640" height="480" fill="#141414"/><path d="M110.7,203a8.7,8.7,0,0,0-6.3,14.8v.4a5.7,5.7,0,0,0-2.9-.1,11.6,11.6,0,0,1-2-6.4,11.2,11.2,0,0,1,22.4,0,11.6,11.6,0,0,1-.8,4.2h-.3l-2.1-.5a8.6,8.6,0,0,0,.8-3.6A8.8,8.8,0,0,0,110.7,203Zm-1.9,8.7a1.8,1.8,0,0,1,1.9-1.9,1.9,1.9,0,0,1,2,1.9v5.8a1.2,1.2,0,0,0,.9,1.2l6.3,1.4a3.2,3.2,0,0,1,2.4,3.9l-2.3,8.1a1.6,1.6,0,0,1-1.4,1.3l-6.1.7h-.2c-.1,0-.2-.1-.2-.3-1.4-3-5-6.2-12-9.4a2.8,2.8,0,0,1,3.6-1.8l3.4,1.3a1.4,1.4,0,0,0,1.1-.1,1.2,1.2,0,0,0,.6-1Zm1.9-4.4a4.4,4.4,0,0,0-4.4,4.4v9.2l-1.8-.6a5.1,5.1,0,0,0-6.9,4,1.9,1.9,0,0,0,1.1,2c7.1,3.2,10.1,6.2,11.1,8.5a2.9,2.9,0,0,0,3,1.7l6.1-.7a4.3,4.3,0,0,0,3.5-3l2.2-8.1a5.6,5.6,0,0,0-4.2-7l-5.3-1.1v-4.9A4.4,4.4,0,0,0,110.7,207.3Z" fill="#f1f1f1"/><text transform="translate(82.4 287)" font-size="21" fill="#f1f1f1" font-family="Roboto-Regular, Roboto">Select</text><path d="M61.2,194.1a15.6,15.6,0,0,1,15.6-15.6h68.8a15.6,15.6,0,0,1,15.6,15.6v48.8a15.6,15.6,0,0,1-15.6,15.6H76.8a15.6,15.6,0,0,1-15.6-15.6Zm15.6-9.3a9.4,9.4,0,0,0-9.4,9.3v48.8a9.4,9.4,0,0,0,9.4,9.4h68.8a9.4,9.4,0,0,0,9.3-9.4V194.1a9.3,9.3,0,0,0-9.3-9.3Z" fill="#f1f1f1"/><text transform="translate(274.3 287)" font-size="21" fill="#6c757d" font-family="Roboto-Italic, Roboto" font-style="italic">Uploads...</text><path d="M295.9,199.6a23.1,23.1,0,0,1,46.1,0h.6a16.3,16.3,0,0,1,16.3,16.3,10.9,10.9,0,0,1-.1,1.8,26.7,26.7,0,0,0-5.6-5,11.1,11.1,0,0,0-10.6-7.9h-3.1a2.6,2.6,0,0,1-2.7-2.6v-.5a17.9,17.9,0,1,0-35.7,0v.5a2.6,2.6,0,0,1-2.7,2.6h-3.1a11.1,11.1,0,1,0,0,22.1h16.5a31.2,31.2,0,0,0-1.1,5.3H295.3a16.3,16.3,0,1,1,0-32.6Zm18.8,35.8a23.2,23.2,0,1,0,23.2-23.2A23.1,23.1,0,0,0,314.7,235.4Zm18.2-15a16,16,0,0,1,6.5-.8,17,17,0,0,1,6.1,2.1,10.9,10.9,0,0,1,2.9,2.3v-1.3a2.2,2.2,0,0,1,2.1-2.1,2.1,2.1,0,0,1,2.1,2.1V229a2.1,2.1,0,0,1-2.1,2.2h-6.3a2.1,2.1,0,0,1-2.1-2.2,2.1,2.1,0,0,1,2.1-2.1h1.2a11.6,11.6,0,0,0-2.1-1.6,11,11,0,0,0-4.4-1.5,11.4,11.4,0,0,0-4.5.6,10.1,10.1,0,0,0-3.9,2.5,2.1,2.1,0,0,1-3-3A14.8,14.8,0,0,1,332.9,220.4Zm9.9,29.9a15.3,15.3,0,0,1-6.4.8,13.9,13.9,0,0,1-6.1-2.1,10.9,10.9,0,0,1-2.9-2.3V248a2.1,2.1,0,0,1-2.1,2.1,2.1,2.1,0,0,1-2.1-2.1v-6.3a2.1,2.1,0,0,1,2.1-2.1h6.3a2.1,2.1,0,0,1,2.1,2.1,2.2,2.2,0,0,1-2.1,2.1h-1.2a8.3,8.3,0,0,0,2.1,1.6,11.1,11.1,0,0,0,4.3,1.5,10.1,10.1,0,0,0,4.6-.6,9.8,9.8,0,0,0,3.9-2.4,2,2,0,0,1,3,0,2.1,2.1,0,0,1,0,2.9A13.3,13.3,0,0,1,342.8,250.3Z" fill="#6c757d"/><path d="M478.6,194.1a15.6,15.6,0,0,1,15.6-15.6H563a15.6,15.6,0,0,1,15.6,15.6v48.8A15.6,15.6,0,0,1,563,258.5H494.2a15.6,15.6,0,0,1-15.6-15.6Zm15.6-9.3a9.3,9.3,0,0,0-9.3,9.3v48.8a9.3,9.3,0,0,0,9.3,9.4H563a9.4,9.4,0,0,0,9.4-9.4V194.1a9.4,9.4,0,0,0-9.4-9.3Z" fill="#f1f1f1"/><text transform="translate(497.3 287)" font-size="21" fill="#f1f1f1" font-family="Roboto-Regular, Roboto" letter-spacing="-0.05em">Get link</text><path d="M197.9,218.5a1.6,1.6,0,0,1,1.5-1.6h41L224.2,201a1.6,1.6,0,0,1,2.2-2.2l19,18.6h0a1.9,1.9,0,0,1,.5,1v.3a1.6,1.6,0,0,1-.5.9h0l-19,18.6a1.6,1.6,0,0,1-2.2,0,1.7,1.7,0,0,1,0-2.3l16.2-15.9h-41A1.6,1.6,0,0,1,197.9,218.5Z" fill="#f1f1f1"/><path d="M394.7,218.5a1.6,1.6,0,0,1,1.6-1.6h41L421.1,201a1.5,1.5,0,0,1-.1-2.2,1.7,1.7,0,0,1,2.3,0l18.9,18.6h0a1.4,1.4,0,0,1,.5,1v.3a1.6,1.6,0,0,1-.5.9h0l-18.9,18.6a1.7,1.7,0,0,1-2.3,0,1.6,1.6,0,0,1,.1-2.3l16.2-15.9h-41A1.6,1.6,0,0,1,394.7,218.5Z" fill="#f1f1f1"/><path d="M537.6,209.5a9,9,0,0,1,.3,18h-5.5a1.1,1.1,0,0,1-1.1-1.1,1,1,0,0,1,1-1.1h5.3a6.8,6.8,0,0,0,.2-13.5h-5.4a1.1,1.1,0,0,1-1.1-1.2,1.2,1.2,0,0,1,1-1.1h5.3Zm-12.8,0a1.1,1.1,0,0,1,1.1,1.1,1.2,1.2,0,0,1-1,1.2h-5.3a6.8,6.8,0,0,0-.2,13.5h5.4a1.1,1.1,0,0,1,1.1,1.1,1,1,0,0,1-1,1.1h-5.3a9,9,0,0,1-.2-18h5.4Zm-6.1,7.9h19.8a1.1,1.1,0,0,1,1.1,1.1,1,1,0,0,1-1,1.1H518.7a1.1,1.1,0,0,1-1.1-1.1,1.1,1.1,0,0,1,1-1.1Z" fill="#f1f1f1"/></svg>